<svg xmlns="http://www.w3.org/2000/svg" width="26.333" height="26.333" viewBox="-7.333 -7.333 26.333 26.333"><path fill="#959595" d="M-2.69 13.47c0-.368.153-.728.4-.975l3.724-3.722C.554 7.503.088 5.985.088 4.443.088.226 3.506-3.19 7.724-3.19c4.22 0 7.635 3.417 7.635 7.636 0 4.218-3.418 7.636-7.637 7.636-1.542 0-3.06-.467-4.33-1.347L-.33 14.448c-.247.26-.606.412-.974.412-.76 0-1.392-.63-1.388-1.39zm5.55-9.03c0 2.68 2.182 4.86 4.862 4.86s4.858-2.18 4.858-4.86c0-2.678-2.18-4.86-4.858-4.86S2.86 1.763 2.86 4.443z"/></svg>