<svg xmlns="http://www.w3.org/2000/svg" width="19" height="19" viewBox="0 0 19 19"><path fill="none" d="M0 0h19.25v19.25H0z"/><path fill="#959595" d="M14.188 14.52c-.22 0-.435-.092-.582-.246l-2.225-2.22c-.757.526-1.664.806-2.585.806-2.522 0-4.563-2.043-4.563-4.563 0-2.52 2.042-4.563 4.564-4.563 2.52 0 4.563 2.042 4.563 4.563 0 .92-.28 1.828-.806 2.587l2.225 2.225c.147.145.24.36.24.58.002.452-.375.83-.83.83zM8.795 5.39c-1.6 0-2.903 1.305-2.903 2.905 0 1.602 1.303 2.904 2.903 2.904 1.602 0 2.905-1.305 2.905-2.906S10.396 5.39 8.795 5.39z"/></svg>