<svg xmlns="http://www.w3.org/2000/svg" xmlns:xlink="http://www.w3.org/1999/xlink" width="183" height="120" viewBox="0 1 183 120"><defs><path id="a" d="M-1-13h187.75v140.664H-1z"/></defs><clipPath id="b"><use xlink:href="#a" overflow="visible"/></clipPath><g clip-path="url(#b)"><path fill="#8DC63F" d="M98.71 101.615h4.026v14.676h9.13v3.636H98.71v-18.31"/></g><defs><path id="c" d="M-1-13h187.75v140.664H-1z"/></defs><clipPath id="d"><use xlink:href="#c" overflow="visible"/></clipPath><g clip-path="url(#d)"><path fill="#8DC63F" d="M115.084 101.615h4.027v18.31h-4.025z"/></g><defs><path id="e" d="M-1-13h187.75v140.664H-1z"/></defs><clipPath id="f"><use xlink:href="#e" overflow="visible"/></clipPath><g clip-path="url(#f)"><path fill="#8DC63F" d="M123.688 101.615h3.716l8.578 11.274v-11.276h3.978v18.31h-3.428l-8.867-11.64v11.64h-3.977v-18.31"/></g><defs><path id="g" d="M-1-13h187.75v140.664H-1z"/></defs><clipPath id="h"><use xlink:href="#g" overflow="visible"/></clipPath><g clip-path="url(#h)"><path fill="#8DC63F" d="M151.99 120.215c-2.457 0-4.395-.682-5.807-2.042-1.41-1.36-2.115-3.392-2.115-6.095v-10.463h4.023v10.36c0 1.5.35 2.626 1.05 3.384.695.76 1.665 1.14 2.9 1.14s2.208-.368 2.905-1.1c.695-.733 1.048-1.835 1.048-3.296v-10.49h4.026v10.332c0 1.396-.19 2.604-.563 3.635-.375 1.033-.91 1.89-1.607 2.577-.698.688-1.544 1.205-2.538 1.548-.994.336-2.1.51-3.32.51"/></g><defs><path id="i" d="M-1-13h187.75v140.664H-1z"/></defs><clipPath id="j"><use xlink:href="#i" overflow="visible"/></clipPath><g clip-path="url(#j)"><path fill="#8DC63F" d="M169.124 110.614l-6.12-9h4.706l3.85 5.938 3.87-5.937h4.576l-6.12 8.947 6.382 9.363h-4.71l-4.106-6.28-4.134 6.28h-4.577l6.385-9.31"/></g><defs><path id="k" d="M-1-13h187.75v140.664H-1z"/></defs><clipPath id="l"><use xlink:href="#k" overflow="visible"/></clipPath><g clip-path="url(#l)"><path fill="#414042" d="M13.345 79.17h1.87l8.057 17.803h-2.147l-2.07-4.672H9.433l-2.096 4.674H5.29l8.055-17.803m4.925 11.34l-4.016-9.015-4.04 9.014h8.056z"/></g><defs><path id="m" d="M-1-13h187.75v140.664H-1z"/></defs><clipPath id="n"><use xlink:href="#m" overflow="visible"/></clipPath><g clip-path="url(#n)"><path fill="#414042" d="M25.847 89.573V79.295h1.996v10.153c0 3.812 2.02 5.96 5.403 5.96 3.258 0 5.33-1.973 5.33-5.835V79.295h1.994v10.128c0 5.15-2.955 7.83-7.374 7.83-4.37 0-7.35-2.68-7.35-7.68"/></g><defs><path id="o" d="M-1-13h187.75v140.664H-1z"/></defs><clipPath id="p"><use xlink:href="#o" overflow="visible"/></clipPath><g clip-path="url(#p)"><path fill="#414042" d="M49.964 81.14H44.03v-1.845h13.89v1.844h-5.935V96.97h-2.02V81.14"/></g><defs><path id="q" d="M-1-13h187.75v140.664H-1z"/></defs><clipPath id="r"><use xlink:href="#q" overflow="visible"/></clipPath><g clip-path="url(#r)"><path fill="#414042" d="M59.663 88.184v-.048c0-4.875 3.662-9.146 9.04-9.146 5.38 0 8.992 4.22 8.992 9.095.025.022.025.022 0 .052 0 4.87-3.662 9.14-9.042 9.14-5.38-.004-8.99-4.218-8.99-9.093m15.96 0v-.048c0-4.02-2.93-7.298-6.97-7.298-4.04 0-6.92 3.23-6.92 7.247v.052c0 4.014 2.93 7.297 6.97 7.297s6.92-3.236 6.92-7.25z"/></g><defs><path id="s" d="M-1-13h187.75v140.664H-1z"/></defs><clipPath id="t"><use xlink:href="#s" overflow="visible"/></clipPath><g clip-path="url(#t)"><path fill="#414042" d="M81.912 79.295h2.02l6.44 9.644 6.44-9.646h2.02v17.678H96.84v-14.32l-6.444 9.47h-.1l-6.44-9.443V96.97h-1.944V79.295"/></g><defs><path id="u" d="M-1-13h187.75v140.664H-1z"/></defs><clipPath id="v"><use xlink:href="#u" overflow="visible"/></clipPath><g clip-path="url(#v)"><path fill="#414042" d="M128.762 81.14h-5.937v-1.845h13.89v1.844h-5.938V96.97h-2.015V81.14"/></g><defs><path id="w" d="M-1-13h187.75v140.664H-1z"/></defs><clipPath id="x"><use xlink:href="#w" overflow="visible"/></clipPath><g clip-path="url(#x)"><path fill="#414042" d="M140.63 79.295h1.994v17.678h-1.995z"/></g><g><defs><path id="y" d="M-1-13h187.75v140.664H-1z"/></defs><clipPath id="z"><use xlink:href="#y" overflow="visible"/></clipPath><g clip-path="url(#z)"><path fill="#414042" d="M146.285 79.295h2.225l6.286 15.226 6.313-15.224h2.146L155.654 97.1h-1.765l-7.606-17.805"/></g></g><g><defs><path id="A" d="M-1-13h187.75v140.664H-1z"/></defs><clipPath id="B"><use xlink:href="#A" overflow="visible"/></clipPath><g clip-path="url(#B)"><path fill="#414042" d="M166.74 79.295h12.78v1.82h-10.782v6.033h9.646v1.82h-9.646v6.186h10.908v1.82H166.74v-17.68"/></g></g><g><defs><path id="C" d="M-1-13h187.75v140.664H-1z"/></defs><clipPath id="D"><use xlink:href="#C" overflow="visible"/></clipPath><g clip-path="url(#D)"><path fill="#414042" d="M90.932 10.52h3.604v16.06h-3.604z"/></g></g><g><defs><path id="E" d="M-1-13h187.75v140.664H-1z"/></defs><clipPath id="F"><use xlink:href="#E" overflow="visible"/></clipPath><g clip-path="url(#F)"><path fill="#414042" d="M64.88 36.76l-2.548 2.548-11.356-11.355 2.55-2.55L64.88 36.76"/></g></g><g><defs><path id="G" d="M-1-13h187.75v140.664H-1z"/></defs><clipPath id="H"><use xlink:href="#G" overflow="visible"/></clipPath><g clip-path="url(#H)"><path fill="#414042" d="M138.293 57.794h16.06V61.4h-16.06z"/></g></g><g><defs><path id="I" d="M-1-13h187.75v140.664H-1z"/></defs><clipPath id="J"><use xlink:href="#I" overflow="visible"/></clipPath><g clip-path="url(#J)"><path fill="#414042" d="M35.14 57.794h16.058V61.4h-16.06z"/></g></g><path fill="none" d="M-1-12.915h187.47v79.64H-1z"/><path fill="none" d="M-1-12.915h187.47v79.64H-1z"/><path fill="none" d="M-1-13h187.75v140.664H-1z"/><g><defs><path id="K" d="M-1-13h187.75v140.664H-1z"/></defs><clipPath id="L"><use xlink:href="#K" overflow="visible"/></clipPath><g clip-path="url(#L)"><path fill="#8DC63F" d="M99.125 67.742c0-3.528-2.86-6.39-6.393-6.39-3.528 0-6.39 2.86-6.39 6.39s2.86 6.39 6.39 6.39c3.534 0 6.393-2.86 6.393-6.39"/></g><defs><path id="M" d="M-1-13h187.75v140.664H-1z"/></defs><clipPath id="N"><use xlink:href="#M" overflow="visible"/></clipPath><g clip-path="url(#N)"><path fill="#8DC63F" d="M98.348 60.622l2.548 2.55 35.22-35.22-2.552-2.55-35.216 35.22"/></g><defs><path id="O" d="M-1-13h187.75v140.664H-1z"/></defs><clipPath id="P"><use xlink:href="#O" overflow="visible"/></clipPath><g clip-path="url(#P)"><path fill="#8DC63F" d="M72.958 32.355h8.848v8.85h-8.848z"/></g><defs><path id="Q" d="M-1-13h187.75v140.664H-1z"/></defs><clipPath id="R"><use xlink:href="#Q" overflow="visible"/></clipPath><g clip-path="url(#R)"><path fill="#8DC63F" d="M83.192 32.355h8.85v8.85h-8.85z"/></g><defs><path id="S" d="M-1-13h187.75v140.664H-1z"/></defs><clipPath id="T"><use xlink:href="#S" overflow="visible"/></clipPath><g clip-path="url(#T)"><path fill="#8DC63F" d="M93.427 32.355h8.85v8.85h-8.85z"/></g><g><defs><path id="U" d="M-1-13h187.75v140.664H-1z"/></defs><clipPath id="V"><use xlink:href="#U" overflow="visible"/></clipPath><g clip-path="url(#V)"><path fill="#8DC63F" d="M103.66 32.355h8.85v8.85h-8.85z"/></g></g><g><defs><path id="W" d="M-1-13h187.75v140.664H-1z"/></defs><clipPath id="X"><use xlink:href="#W" overflow="visible"/></clipPath><g clip-path="url(#X)" fill="#414042"><path d="M23.394 104.844l-1.405 1.332c-1.01-.996-2.12-1.75-3.32-2.263-1.206-.513-2.378-.772-3.52-.772-1.42 0-2.774.356-4.06 1.05-1.287.7-2.28 1.647-2.988 2.844-.707 1.192-1.06 2.454-1.06 3.788 0 1.364.365 2.66 1.097 3.89.73 1.23 1.74 2.193 3.03 2.896 1.29.7 2.703 1.052 4.24 1.052 1.863 0 3.44-.523 4.73-1.578 1.29-1.052 2.054-2.412 2.292-4.09h-5.78v-1.75h7.813c-.017 2.802-.85 5.026-2.495 6.675-1.647 1.646-3.85 2.47-6.61 2.47-3.353 0-6.005-1.142-7.96-3.426-1.504-1.76-2.255-3.79-2.255-6.1 0-1.718.43-3.314 1.293-4.794s2.045-2.637 3.548-3.472c1.503-.834 3.205-1.247 5.102-1.247 1.537 0 2.98.277 4.337.83s2.68 1.443 3.97 2.668zm4.62-3.044h3.61c2.014 0 3.377.083 4.092.247 1.076.246 1.952.776 2.625 1.585.675.81 1.01 1.808 1.01 2.992 0 .987-.23 1.854-.694 2.603-.464.75-1.127 1.313-1.99 1.696-.863.384-2.054.578-3.574.588l6.52 8.416h-2.24l-6.52-8.414h-1.024v8.415h-1.812V101.8zm1.81 1.774v6.162l3.125.02c1.21 0 2.102-.113 2.682-.342.58-.23 1.033-.602 1.356-1.104.325-.504.488-1.07.488-1.692 0-.608-.165-1.163-.494-1.66-.33-.496-.76-.85-1.296-1.063-.536-.215-1.424-.32-2.666-.32h-3.197zm20.814-1.774l8.453 18.125h-1.955l-2.85-5.963h-7.81l-2.823 5.963h-2.02l8.563-18.125h.445zm-.23 3.85l-3.104 6.562H53.5l-3.09-6.562zM61.9 119.925V101.8h3.758c2.712 0 4.68.22 5.903.653 1.76.615 3.134 1.684 4.124 3.203.99 1.52 1.485 3.333 1.485 5.436 0 1.814-.394 3.41-1.177 4.793-.785 1.38-1.805 2.397-3.057 3.055-1.252.656-3.007.985-5.267.985H61.9zm1.738-1.71h2.095c2.506 0 4.243-.158 5.213-.47 1.362-.444 2.435-1.242 3.216-2.396.78-1.154 1.17-2.564 1.17-4.23 0-1.748-.424-3.24-1.27-4.48-.845-1.24-2.023-2.09-3.535-2.55-1.134-.344-3.003-.517-5.606-.517h-1.28v14.64zM80.692 101.8H91.08v1.774h-8.577v5.682h8.5v1.773h-8.5v7.12h8.5v1.77h-10.31V101.8z"/></g></g><g><defs><path id="Y" d="M-1-13h187.75v140.664H-1z"/></defs><clipPath id="Z"><use xlink:href="#Y" overflow="visible"/></clipPath><g clip-path="url(#Z)"><path fill="#0096D6" d="M105.986 93.45v-7.048h-3.528v10.57h10.574V93.45h-7.046"/></g></g><g><defs><path id="aa" d="M-1-13h187.75v140.664H-1z"/></defs><clipPath id="ab"><use xlink:href="#aa" overflow="visible"/></clipPath><g clip-path="url(#ab)"><path fill="#003F5F" d="M120.075 79.352H102.46v5.285h3.522V82.89h10.575v10.56h-1.763v3.523h5.28v-17.62"/></g></g></g><path fill="#414042" d="M30.06 66.667C32.055 32.575 60.413 5.45 94.997 5.45c34.583 0 62.942 27.125 64.94 61.217h2.985c-.927-16.73-7.873-32.328-19.812-44.268C130.26 9.546 113.175 2.47 95 2.47c-18.174 0-35.262 7.077-48.114 19.93C34.946 34.34 28 49.938 27.074 66.667h2.987z"/></svg>